# xmcd
#
# Track frame offsets: 
#        300
#        16685
#        31795
#        43805
#        59000
#        76185
#        89967
#        104287
#        121167
#        138530
#        158722
#        172132
#        186130
#        201957
#        219177
#        234227
#        250492
#        264005
#
# Disc length: 3691 seconds
#
# Revision: 0
# Processed by: cddbd v1.4PL0 Copyright (c) Steve Scherf et al.
# Submitted via: ExactAudioCopy v0.90b3
#
DISCID=f40e6712
DTITLE=Sawyer Brown - The Hits Live
DYEAR=1900
DGENRE=Country
TTITLE0=Lookin' for love
TTITLE1=Hard to Say
TTITLE2=This Time
TTITLE3=Cafe On The Corner
TTITLE4=The Walk
TTITLE5=Step by Step
TTITLE6=The Dirt Road
TTITLE7=This Night Won't Last Forever
TTITLE8=All these Yaers
TTITLE9=The Boys And Me
TTITLE10=Thank God Fro You
TTITLE11=The Race Is On
TTITLE12=Drive Me Wild
TTITLE13=Some Girls Do
TTITLE14=Perfect World
TTITLE15=Garage Band
TTITLE16=Six Days On The Road
TTITLE17=800 Pound Jesus
EXTD=
EXTT0=
EXTT1=
EXTT2=
EXTT3=
EXTT4=
EXTT5=
EXTT6=
EXTT7=
EXTT8=
EXTT9=
EXTT10=
EXTT11=
EXTT12=
EXTT13=
EXTT14=
EXTT15=
EXTT16=
EXTT17=
PLAYORDER=
